<svg xmlns="http://www.w3.org/2000/svg" viewBox="0 0 106.7 86.7">
  <path d="M0 0c6.3.1 12.7.1 19 .2 3.6.1 3.6.1 3.7 3.6.1 2 .1 4 0 6-.1 2.4 1 3.3 3.3 3.2 5.2-.1 10.3 0 15.5 0H45c1.5 0 2.1.8 1.7 2.2-1.8 5.9-3.7 11.8-5.5 17.7-.6 1.8-1.8 2.1-3.5 2.1-3.8 0-7.7-.1-11.5 0-3.2.1-3.4.3-3.5 3.4-.1 5.5-.1 11 0 16.5 0 4.7 1.8 6.8 6.1 7.7 4.1.8 8.5-1.3 9.9-5 1.3-3.4 2.2-7 3.3-10.5C45 37 47.9 27 50.9 16.9c1.2-3.9 1.2-4 5-4 5.5 0 11 .1 16.5-.1 2.8-.1 4.2.9 5.3 3.4C84.3 32.5 91.2 48.6 98 64.7c2.7 6.4 5.5 12.9 8.3 19.3.8 1.8.6 2.8-1.7 2.8h-27c-1.8 0-2.8-.6-3.4-2.3-2.4-6.6-4.9-13.1-7.3-19.7-.5-1.2-.1-1.9 1.3-2h1.5c5.5-.3 5.5-.3 3.2-5.5-1.4-3-2.7-6.1-4.1-9.1-.3-.6-.8-1-1.2-1.5-.5.6-1.2 1.1-1.4 1.8-3.1 9-6.1 18-9.2 27-.5 1.6-1.1 3.1-1.8 4.6-2.1 4.3-5.6 6.6-10.3 6.7-12.2.1-24.3 0-36.5 0-3.6 0-5.8-2-7.3-5.1C.8 81 .4 80.5 0 80V0z" fill="#42589d"/>
</svg>
